<svg width="245" height="241" viewBox="0 0 245 241" fill="none" xmlns="http://www.w3.org/2000/svg">
<circle cx="45.5" cy="97.5" r="38.5" fill="#D9D9D9"/>
<path fill-rule="evenodd" clip-rule="evenodd" d="M245 120.5C245 187.05 190.155 241 122.5 241C82.9737 241 47.8197 222.585 25.4206 194.002L84.0034 194.782L84 194.973L119.994 195.603L120 195.262L210.983 196.474L149.795 3.00215C204.311 15.2051 245 63.1785 245 120.5ZM149.37 2.90797C149.512 2.93912 149.653 2.97052 149.795 3.00215L149.363 1.6357C149.366 2.05768 149.369 2.48179 149.37 2.90797ZM121.221 125.564L120 195.262L84.0034 194.782L84.6816 156.064C99.9926 151.149 111.968 140.076 121.221 125.564ZM24.024 192.184C24.4838 192.795 24.9494 193.4 25.4206 194.002L24 193.983L24.024 192.184ZM24.024 192.184L24.6128 147.987C48.7997 159.591 68.5844 161.231 84.6816 156.064L87.1002 18L123.095 18.6306L121.221 125.564C142.696 91.8847 149.517 39.6786 149.37 2.90797C140.723 1.00433 131.731 0 122.5 0C54.8451 0 0 53.9497 0 120.5C0 147.351 8.92831 172.151 24.024 192.184Z" fill="#49C956"/>
<path d="M141.85 133.032L230.598 108.128L211.806 193.054L141.85 133.032Z" fill="#D9D9D9"/>
</svg>
